<svg width="671" height="82" viewBox="0 0 671 82" fill="none" xmlns="http://www.w3.org/2000/svg">
<path d="M94.354 80H62.66V75.972C64.0733 75.2653 65.4513 74.6647 66.794 74.17C68.1367 73.6753 69.5853 73.2513 71.14 72.898V28.59L71.67 16.188H70.822L67.324 27.53L46.866 80H41.99L21.638 27.954L17.822 15.552H16.868L16.974 29.014V72.474C18.3167 72.7567 19.8007 73.216 21.426 73.852C23.0513 74.488 24.5707 75.1947 25.984 75.972V80H0.12V75.972C1.25067 75.4067 2.62867 74.7353 4.254 73.958C5.95 73.1807 7.54 72.6507 9.024 72.368V12.902C7.61067 12.6193 6.09133 12.2307 4.466 11.736C2.91133 11.2413 1.53333 10.6053 0.332 9.82799V5.79999H29.058L45.276 48.942L48.35 59.118H48.456L51.636 48.73L68.172 5.79999H94.46V9.82799C93.2587 10.5347 91.9513 11.1707 90.538 11.736C89.1953 12.2307 87.8173 12.6193 86.404 12.902V73.004C87.888 73.2867 89.3013 73.7107 90.644 74.276C92.0573 74.8413 93.294 75.4067 94.354 75.972V80ZM148.063 71.096C147.498 72.2973 146.579 73.534 145.307 74.806C144.106 76.0073 142.586 77.1027 140.749 78.092C138.982 79.0107 136.898 79.7527 134.495 80.318C132.163 80.954 129.619 81.272 126.863 81.272C122.482 81.272 118.595 80.636 115.203 79.364C111.811 78.0213 108.984 76.1487 106.723 73.746C104.462 71.2727 102.73 68.34 101.529 64.948C100.398 61.556 99.8329 57.74 99.8329 53.5C99.8329 44.4547 102.2 37.5647 106.935 32.83C111.67 28.0953 118.242 25.728 126.651 25.728C130.255 25.728 133.612 26.2227 136.721 27.212C139.901 28.2013 142.516 29.8267 144.565 32.088C146.685 34.3493 148.134 37.3173 148.911 40.992C149.759 44.6667 149.724 49.154 148.805 54.454H116.263C116.334 60.0367 117.747 64.4887 120.503 67.81C123.33 71.1313 127.464 72.792 132.905 72.792C135.237 72.792 137.64 72.4387 140.113 71.732C142.657 71.0253 144.636 70.1067 146.049 68.976L148.063 71.096ZM126.227 31.77C124.814 31.77 123.542 32.0173 122.411 32.512C121.351 33.0067 120.397 33.9253 119.549 35.268C118.772 36.54 118.136 38.3067 117.641 40.568C117.146 42.7587 116.793 45.55 116.581 48.942H133.647C134.142 43.43 133.824 39.19 132.693 36.222C131.562 33.254 129.407 31.77 126.227 31.77ZM220.472 80H192.382V75.866C193.301 75.3713 194.184 74.9473 195.032 74.594C195.951 74.17 197.011 73.746 198.212 73.322V48.412C198.212 43.96 197.576 40.4973 196.304 38.024C195.032 35.48 192.771 34.208 189.52 34.208C186.835 34.208 184.503 35.0913 182.524 36.858C180.616 38.554 179.168 40.886 178.178 43.854V73.322C179.309 73.6047 180.298 73.958 181.146 74.382C182.065 74.7353 183.019 75.23 184.008 75.866V80H155.918V75.866C157.685 74.9473 160.017 74.0993 162.914 73.322V34.526L155.918 33.678V29.544C156.837 29.12 158.038 28.7313 159.522 28.378C161.006 27.954 162.596 27.5653 164.292 27.212C166.059 26.8587 167.826 26.576 169.592 26.364C171.43 26.0813 173.09 25.8693 174.574 25.728H178.178V36.646H178.284C179.768 33.678 181.994 31.134 184.962 29.014C187.93 26.8233 191.534 25.728 195.774 25.728C198.53 25.728 201.004 26.0813 203.194 26.788C205.385 27.424 207.222 28.59 208.706 30.286C210.261 31.982 211.427 34.2787 212.204 37.176C213.052 40.0027 213.476 43.6067 213.476 47.988V73.322C216.303 73.8167 218.635 74.6647 220.472 75.866V80ZM261.129 69.506C260.776 71.0607 260.14 72.5447 259.221 73.958C258.303 75.3713 257.207 76.6433 255.935 77.774C254.663 78.834 253.215 79.682 251.589 80.318C249.964 80.954 248.233 81.272 246.395 81.272C239.399 81.272 234.064 79.0813 230.389 74.7C226.785 70.248 224.983 63.464 224.983 54.348C224.983 49.684 225.619 45.6207 226.891 42.158C228.163 38.6247 229.93 35.6567 232.191 33.254C234.523 30.8513 237.315 29.0493 240.565 27.848C243.816 26.6467 247.42 26.046 251.377 26.046C252.649 26.046 253.709 26.0813 254.557 26.152C255.476 26.2227 256.289 26.3287 256.995 26.47C257.773 26.5407 258.479 26.7173 259.115 27C259.822 27.212 260.599 27.4593 261.447 27.742V9.086L253.391 8.238V4.104C254.381 3.67999 255.723 3.29133 257.419 2.93799C259.186 2.58466 261.023 2.26666 262.931 1.98399C264.839 1.63066 266.712 1.31266 268.549 1.02999C270.387 0.74733 271.906 0.499998 273.107 0.287996H276.711V72.474L283.707 73.322V77.032C282.718 77.5267 281.446 77.986 279.891 78.41C278.337 78.834 276.711 79.2227 275.015 79.576C273.319 79.9293 271.659 80.212 270.033 80.424C268.479 80.7067 267.171 80.9187 266.111 81.06H262.507L261.553 69.506H261.129ZM251.483 72.792C253.957 72.792 256.041 72.0147 257.737 70.46C259.433 68.9053 260.67 66.2553 261.447 62.51V33.996C260.529 33.4307 259.363 32.9713 257.949 32.618C256.607 32.2647 254.911 32.088 252.861 32.088C248.763 32.088 245.83 33.9607 244.063 37.706C242.297 41.3807 241.413 46.7513 241.413 53.818C241.413 59.542 242.191 64.1353 243.745 67.598C245.3 71.0607 247.879 72.792 251.483 72.792ZM336.668 71.096C336.103 72.2973 335.184 73.534 333.912 74.806C332.711 76.0073 331.192 77.1027 329.354 78.092C327.588 79.0107 325.503 79.7527 323.1 80.318C320.768 80.954 318.224 81.272 315.468 81.272C311.087 81.272 307.2 80.636 303.808 79.364C300.416 78.0213 297.59 76.1487 295.328 73.746C293.067 71.2727 291.336 68.34 290.134 64.948C289.004 61.556 288.438 57.74 288.438 53.5C288.438 44.4547 290.806 37.5647 295.54 32.83C300.275 28.0953 306.847 25.728 315.256 25.728C318.86 25.728 322.217 26.2227 325.326 27.212C328.506 28.2013 331.121 29.8267 333.17 32.088C335.29 34.3493 336.739 37.3173 337.516 40.992C338.364 44.6667 338.329 49.154 337.41 54.454H304.868C304.939 60.0367 306.352 64.4887 309.108 67.81C311.935 71.1313 316.069 72.792 321.51 72.792C323.842 72.792 326.245 72.4387 328.718 71.732C331.262 71.0253 333.241 70.1067 334.654 68.976L336.668 71.096ZM314.832 31.77C313.419 31.77 312.147 32.0173 311.016 32.512C309.956 33.0067 309.002 33.9253 308.154 35.268C307.377 36.54 306.741 38.3067 306.246 40.568C305.752 42.7587 305.398 45.55 305.186 48.942H322.252C322.747 43.43 322.429 39.19 321.298 36.222C320.168 33.254 318.012 31.77 314.832 31.77ZM374.628 80H345.372V75.866C347.704 74.7353 350.036 73.8873 352.368 73.322V9.086L344.312 8.238V4.104C345.231 3.67999 346.503 3.25599 348.128 2.832C349.753 2.408 351.485 2.05466 353.322 1.772C355.23 1.41866 357.103 1.136 358.94 0.923995C360.848 0.641327 362.544 0.429328 364.028 0.287996H367.632V73.322C369.964 73.8873 372.296 74.7353 374.628 75.866V80ZM407.809 68.446C407.809 66.6087 407.138 65.0187 405.795 63.676C404.523 62.3333 402.898 61.0967 400.919 59.966C399.011 58.8353 396.891 57.7047 394.559 56.574C392.298 55.4433 390.178 54.136 388.199 52.652C386.291 51.0973 384.666 49.2953 383.323 47.246C382.051 45.1967 381.415 42.688 381.415 39.72C381.415 37.6 381.91 35.692 382.899 33.996C383.889 32.2293 385.231 30.7453 386.927 29.544C388.623 28.3427 390.637 27.424 392.969 26.788C395.372 26.0813 397.951 25.728 400.707 25.728C404.523 25.728 408.057 26.046 411.307 26.682C414.629 27.2473 417.526 28.06 419.999 29.12C419.717 31.3813 419.151 33.8193 418.303 36.434C417.455 38.978 416.643 41.31 415.865 43.43H412.261L407.809 32.618C406.961 32.2647 406.078 32.0527 405.159 31.982C404.241 31.8407 403.216 31.77 402.085 31.77C399.965 31.77 398.34 32.406 397.209 33.678C396.149 34.8793 395.619 36.2573 395.619 37.812C395.619 39.5787 396.255 41.1333 397.527 42.476C398.87 43.748 400.495 44.9493 402.403 46.08C404.382 47.2107 406.502 48.3413 408.763 49.472C411.095 50.6027 413.215 51.91 415.123 53.394C417.102 54.8073 418.727 56.5033 419.999 58.482C421.342 60.4607 422.013 62.828 422.013 65.584C422.013 70.46 420.035 74.3113 416.077 77.138C412.12 79.894 406.82 81.272 400.177 81.272C396.785 81.272 393.287 80.9187 389.683 80.212C386.079 79.5053 382.97 78.516 380.355 77.244C380.497 74.7 381.097 72.1207 382.157 69.506C383.217 66.8913 384.348 64.5593 385.549 62.51H389.153L394.347 74.064C395.125 74.6293 395.973 74.9827 396.891 75.124C397.881 75.1947 398.799 75.23 399.647 75.23C401.697 75.23 403.569 74.6293 405.265 73.428C406.961 72.2267 407.809 70.566 407.809 68.446ZM455.737 68.446C455.737 66.6087 455.066 65.0187 453.723 63.676C452.451 62.3333 450.826 61.0967 448.847 59.966C446.939 58.8353 444.819 57.7047 442.487 56.574C440.226 55.4433 438.106 54.136 436.127 52.652C434.219 51.0973 432.594 49.2953 431.251 47.246C429.979 45.1967 429.343 42.688 429.343 39.72C429.343 37.6 429.838 35.692 430.827 33.996C431.816 32.2293 433.159 30.7453 434.855 29.544C436.551 28.3427 438.565 27.424 440.897 26.788C443.3 26.0813 445.879 25.728 448.635 25.728C452.451 25.728 455.984 26.046 459.235 26.682C462.556 27.2473 465.454 28.06 467.927 29.12C467.644 31.3813 467.079 33.8193 466.231 36.434C465.383 38.978 464.57 41.31 463.793 43.43H460.189L455.737 32.618C454.889 32.2647 454.006 32.0527 453.087 31.982C452.168 31.8407 451.144 31.77 450.013 31.77C447.893 31.77 446.268 32.406 445.137 33.678C444.077 34.8793 443.547 36.2573 443.547 37.812C443.547 39.5787 444.183 41.1333 445.455 42.476C446.798 43.748 448.423 44.9493 450.331 46.08C452.31 47.2107 454.43 48.3413 456.691 49.472C459.023 50.6027 461.143 51.91 463.051 53.394C465.03 54.8073 466.655 56.5033 467.927 58.482C469.27 60.4607 469.941 62.828 469.941 65.584C469.941 70.46 467.962 74.3113 464.005 77.138C460.048 79.894 454.748 81.272 448.105 81.272C444.713 81.272 441.215 80.9187 437.611 80.212C434.007 79.5053 430.898 78.516 428.283 77.244C428.424 74.7 429.025 72.1207 430.085 69.506C431.145 66.8913 432.276 64.5593 433.477 62.51H437.081L442.275 74.064C443.052 74.6293 443.9 74.9827 444.819 75.124C445.808 75.1947 446.727 75.23 447.575 75.23C449.624 75.23 451.497 74.6293 453.193 73.428C454.889 72.2267 455.737 70.566 455.737 68.446ZM476.423 53.5C476.423 49.1893 477.059 45.338 478.331 41.946C479.673 38.4833 481.546 35.5507 483.949 33.148C486.422 30.7453 489.39 28.908 492.853 27.636C496.315 26.364 500.237 25.728 504.619 25.728C509.565 25.728 513.805 26.4347 517.339 27.848C520.943 29.1907 523.875 31.0987 526.137 33.572C528.469 35.9747 530.165 38.9073 531.225 42.37C532.285 45.762 532.815 49.472 532.815 53.5C532.815 57.8107 532.179 61.6973 530.907 65.16C529.635 68.552 527.762 71.4493 525.289 73.852C522.886 76.2547 519.918 78.092 516.385 79.364C512.922 80.636 509 81.272 504.619 81.272C499.813 81.272 495.644 80.6007 492.111 79.258C488.577 77.8447 485.645 75.9367 483.313 73.534C480.981 71.0607 479.249 68.128 478.119 64.736C476.988 61.2733 476.423 57.528 476.423 53.5ZM492.853 53.5C492.853 56.68 493.029 59.6127 493.383 62.298C493.807 64.9127 494.513 67.1387 495.503 68.976C496.492 70.8133 497.835 72.262 499.531 73.322C501.227 74.3113 503.417 74.806 506.103 74.806C507.657 74.806 509.071 74.4527 510.343 73.746C511.615 72.9687 512.71 71.7673 513.629 70.142C514.547 68.446 515.219 66.2553 515.643 63.57C516.137 60.814 516.385 57.4573 516.385 53.5C516.385 50.2493 516.173 47.3167 515.749 44.702C515.395 42.0873 514.724 39.8613 513.735 38.024C512.816 36.1867 511.544 34.7733 509.919 33.784C508.293 32.724 506.244 32.194 503.771 32.194C501.933 32.194 500.343 32.5827 499.001 33.36C497.658 34.0667 496.527 35.268 495.609 36.964C494.69 38.5893 493.983 40.78 493.489 43.536C493.065 46.2213 492.853 49.5427 492.853 53.5ZM602.642 80H574.552V75.866C575.4 75.3713 576.284 74.912 577.202 74.488C578.121 74.064 579.181 73.6753 580.382 73.322V51.91C580.382 45.8327 579.782 41.3807 578.58 38.554C577.45 35.6567 575.188 34.208 571.796 34.208C568.97 34.208 566.567 35.1973 564.588 37.176C562.61 39.084 561.196 41.31 560.348 43.854V73.322C561.479 73.6047 562.468 73.9227 563.316 74.276C564.235 74.6293 565.189 75.1593 566.178 75.866V80H538.088V75.866C540.279 74.7353 542.611 73.8873 545.084 73.322V9.086L537.028 8.238V4.104C538.088 3.67999 539.431 3.25599 541.056 2.832C542.752 2.408 544.519 2.05466 546.356 1.772C548.194 1.41866 550.031 1.136 551.868 0.923995C553.706 0.641327 555.331 0.429328 556.744 0.287996H560.348V37.706H560.454C561.161 36.0807 562.115 34.5613 563.316 33.148C564.518 31.664 565.86 30.392 567.344 29.332C568.899 28.2013 570.56 27.318 572.326 26.682C574.093 26.046 575.966 25.728 577.944 25.728C580.771 25.728 583.28 26.0813 585.47 26.788C587.732 27.424 589.604 28.59 591.088 30.286C592.572 31.982 593.703 34.2787 594.48 37.176C595.258 40.0027 595.646 43.6067 595.646 47.988V73.322C596.848 73.6047 598.049 73.9227 599.25 74.276C600.452 74.6293 601.582 75.1593 602.642 75.866V80ZM670.869 80H642.779V75.866C643.698 75.3713 644.581 74.9473 645.429 74.594C646.348 74.17 647.408 73.746 648.609 73.322V48.412C648.609 43.96 647.973 40.4973 646.701 38.024C645.429 35.48 643.168 34.208 639.917 34.208C637.232 34.208 634.9 35.0913 632.921 36.858C631.013 38.554 629.564 40.886 628.575 43.854V73.322C629.706 73.6047 630.695 73.958 631.543 74.382C632.462 74.7353 633.416 75.23 634.405 75.866V80H606.315V75.866C608.082 74.9473 610.414 74.0993 613.311 73.322V34.526L606.315 33.678V29.544C607.234 29.12 608.435 28.7313 609.919 28.378C611.403 27.954 612.993 27.5653 614.689 27.212C616.456 26.8587 618.222 26.576 619.989 26.364C621.826 26.0813 623.487 25.8693 624.971 25.728H628.575V36.646H628.681C630.165 33.678 632.391 31.134 635.359 29.014C638.327 26.8233 641.931 25.728 646.171 25.728C648.927 25.728 651.4 26.0813 653.591 26.788C655.782 27.424 657.619 28.59 659.103 30.286C660.658 31.982 661.824 34.2787 662.601 37.176C663.449 40.0027 663.873 43.6067 663.873 47.988V73.322C666.7 73.8167 669.032 74.6647 670.869 75.866V80Z" fill="white"/>
</svg>
